<svg width="207" height="96" viewBox="0 0 207 96" fill="none" xmlns="http://www.w3.org/2000/svg">
<path d="M46.4423 81.0577C42.9231 78.4038 40.3846 74.3654 39.5192 69.75H28.2115V20.9423C34.2692 24 38.6538 30.6346 39.1731 37.5577L40.8461 51.3462L39.9808 51.2308C38.1346 51.2308 36.5769 52.9038 36.5769 54.6346C36.5769 56.1923 37.7885 57.5769 39.3462 57.9231L41.4231 58.3846C44.8269 51.9231 46.7885 45.6346 46.7885 39.4615C46.7885 33.8654 46.0384 28.2692 45.9231 22.5577C45.9231 20.0192 46.9038 17.7115 48.4615 15.8654C50.0192 17.7115 51 20.0192 51 22.5577C51 28.2692 50.1346 33.8654 50.1346 39.4615C50.1346 45.6346 52.0962 51.9808 55.5 58.3846L57.5769 57.9231C59.1346 57.5769 60.3461 56.25 60.3461 54.6346C60.3461 52.9615 58.7885 51.2308 56.9423 51.2308L56.0769 51.3462L57.75 37.6154C58.6154 30.6923 62.5962 24 68.6539 21V69.8077H57.3461C56.4808 74.4231 54.0577 78.5769 50.4231 81.1154C49.5577 81.75 48.8654 82.4423 48.3461 83.4231C48 82.4423 47.25 81.6923 46.4423 81.0577ZM33.5192 52.9038C33.9808 51.0577 35.3654 49.5 37.0385 48.5192L35.7115 37.2115C35.25 33.6923 33.75 30.5192 31.5577 27.9808V52.9038H33.5192ZM39.2308 66.4039C39.2308 64.7308 39.4615 63.1154 39.8654 61.5577L38.3077 61.2115C36 60.4615 34.1539 58.6731 33.5769 56.3654H31.6154V66.4615H39.2308V66.4039ZM46.7885 66.4039C46.7885 64.3269 45.2308 62.5385 43.1538 62.25C42.8077 63.5769 42.5192 64.9039 42.5192 66.4039H46.7885ZM46.7885 69.8077H43.0384C43.6731 72.4615 45 74.8846 46.7885 76.9615V69.8077ZM52.1538 59.25C50.7115 56.5962 49.3846 53.7692 48.5192 50.8846C47.6538 53.8269 46.3269 56.5962 44.8846 59.25C46.3269 59.5962 47.5385 60.5769 48.5192 61.6731C49.4423 60.5769 50.6538 59.5962 52.1538 59.25ZM54.4615 66.4039C54.4615 64.9615 54.2308 63.6346 53.8269 62.25C51.75 62.4808 50.1923 64.3269 50.1923 66.4039H54.4615ZM53.9423 69.8077H50.1923V76.9615C51.9808 74.8846 53.3654 72.4615 53.9423 69.8077ZM65.3654 66.4039V56.3077H63.4038C62.7692 58.6154 60.9808 60.4615 58.6731 61.1538L57.1154 61.5C57.4615 63.0577 57.75 64.6731 57.75 66.3462H65.3654V66.4039ZM65.3654 52.9038V27.9808C63.1731 30.5192 61.6154 33.6923 61.2115 37.2115L59.8846 48.5192C61.5577 49.5 62.9423 51.0577 63.4038 52.9038H65.3654Z" fill="white"/>
<path d="M48 1.5C68.7116 1.5 80.0769 1.5 87.2885 8.71154C94.5 15.9231 94.5 27.2885 94.5 48C94.5 68.7115 94.5 80.0769 87.2885 87.2885C80.0769 94.5 68.7116 94.5 48 94.5C27.2885 94.5 15.9231 94.5 8.71153 87.2885C1.49999 80.0769 1.49999 68.7115 1.49999 48C1.49999 27.2885 1.49999 15.9231 8.71153 8.71154C15.8654 1.5 27.2885 1.5 48 1.5ZM48 0C26.9423 0 15.2885 0 7.61539 7.61538C6.86645e-06 15.2308 0 26.9423 0 48C0 69.0577 6.86645e-06 80.7115 7.61539 88.3846C15.2308 96 26.9423 96 48 96C69.0577 96 80.7116 96 88.3846 88.3846C96 80.7692 96 69.0577 96 48C96 26.9423 96 15.2885 88.3846 7.61538C80.7116 0 69 0 48 0Z" fill="white"/>
<path d="M159 1.5C179.712 1.5 191.077 1.5 198.288 8.71154C205.5 15.9231 205.5 27.2885 205.5 48C205.5 68.7115 205.5 80.0769 198.288 87.2885C191.077 94.5 179.712 94.5 159 94.5C138.288 94.5 126.923 94.5 119.712 87.2885C112.5 80.0769 112.5 68.7115 112.5 48C112.5 27.2885 112.5 15.9231 119.712 8.71154C126.865 1.5 138.288 1.5 159 1.5ZM159 0C137.942 0 126.288 0 118.615 7.61538C111 15.2308 111 26.9423 111 48C111 69.0577 111 80.7115 118.615 88.3846C126.231 96 137.942 96 159 96C180.058 96 191.712 96 199.385 88.3846C207 80.7692 207 69.0577 207 48C207 26.9423 207 15.2885 199.385 7.61538C191.712 0 180 0 159 0Z" fill="white"/>
<path d="M177.054 38.5266C173.426 38.5266 170.719 41.3484 170.719 44.8037C170.719 47.6256 172.677 49.8139 175.211 50.4474L170.086 58.337H174.866L179.243 51.0233H182.525V58.337H186.556V38.5266H177.054ZM177.572 47.6256C175.902 47.6256 174.923 46.3586 174.923 44.8613C174.923 43.364 175.845 41.9819 177.572 41.9819H182.525V47.6256H177.572Z" fill="white"/>
<path d="M155.055 38.5266L153.731 42.2122L159.202 42.1546L155.977 54.0179C155.055 57.4732 158.683 60.1223 161.736 58.0491L168.761 53.3268L166.688 50.2746L159.72 55.1121L164.442 38.5266H155.055Z" fill="white"/>
<path d="M165.364 33.4588C165.364 34.8409 164.73 35.9351 162.599 35.9351C160.526 35.9351 159.835 34.8409 159.835 33.4588C159.835 32.0767 160.526 30.9825 162.599 30.9825C164.73 30.9825 165.364 32.0767 165.364 33.4588Z" fill="white"/>
<path d="M148.433 54.6514V33.9195H133.057V44.9765C133.057 50.217 131.559 53.3844 130.638 54.6514H128.795V63.6927H132.711V58.337H147.281V63.6927H151.197V54.6514H148.433ZM136.915 44.7461V37.6052H144.402V54.6514H134.727C135.59 53.2116 136.915 49.526 136.915 44.7461Z" fill="white"/>
</svg>
